#!OML:ASF I:\Actors\actors\Patient Classification 2\Patient 1\Session 1\actor1.ASF
:FULLY-SPECIFIED
:DEGREES
397
root -1.26326 17.8551 6.20638 -4.46591 25.1791 -9.01927
lowerback 9.43348 4.92515 8.28797
upperback -0.0453904 7.56666 1.82573
thorax -4.50569 3.57614 -3.64013
lowerneck -5.43157 14.625 14.2164
upperneck 4.31937 18.6814 -4.45763
head 3.84592 9.35604 -2.30315
rclavicle 3.94471e-014 2.93953e-014
rhumerus 9.26901 -2.15828 -77.0412
rradius 102.662
rwrist -21.9252
rhand -37.1861 -38.6229
rfingers 7.12502
rthumb -10.2542 -68.3529
lclavicle 3.94471e-014 2.93953e-014
lhumerus -17.7281 -35.091 88.3412
lradius 68.2474
lwrist 10.6938
lhand -1.54829 -21.5046
lfingers 7.12502
lthumb 24.1066 7.00098
rfemur 23.0259 -18.6788 25.2699
rtibia -14.4759
rfoot -17.9868 -22.46
rtoes -1.32032
lfemur 21.876 -18.7077 -7.04569
ltibia -34.6326
lfoot 13.5704 5.88795
ltoes -19.678
398
root -1.25453 17.8706 6.23191 -4.93894 26.2216 -9.11622
lowerback 9.08794 5.26093 9.31235
upperback -0.16239 8.07614 1.55282
thorax -4.20053 3.81525 -4.48416
lowerneck -6.46345 13.5098 13.6023
upperneck 5.857 16.9884 -2.84787
head 4.14913 8.59041 -1.80569
rclavicle -5.85234e-014 -2.78299e-014
rhumerus 15.6164 -1.34524 -82.6714
rradius 102.165
rwrist -22.247
rhand -43.01 -41.7557
rfingers 7.12502
rthumb -15.868 -71.1255
lclavicle -5.85234e-014 -2.78299e-014
lhumerus -15.7287 -36.8193 88.645
lradius 66.062
lwrist 9.99709
lhand -1.18778 -21.5843
lfingers 7.12502
lthumb 24.4522 6.875
rfemur 22.5221 -18.8898 25.2203
rtibia -12.3743
rfoot -19.5118 -22.0657
rtoes -1.25246
lfemur 21.959 -19.3033 -7.16752
ltibia -34.3959
lfoot 13.5554 5.53127
ltoes -19.6495
399
root -1.24273 17.8829 6.25669 -5.46945 27.1084 -9.04994
lowerback 9.17345 5.71576 10.4268
upperback -0.361207 8.80059 1.16173
thorax -4.1362 4.14213 -5.56202
lowerneck -7.68 12.1985 12.9895
upperneck 7.49801 14.9677 -1.0412
head 4.51936 7.69709 -1.25887
rclavicle -6.00019e-014 -8.94531e-016
rhumerus 21.3853 2.41804 -86.695
rradius 102.21
rwrist -21.9056
rhand -44.2072 -41.8745
rfingers 7.12502
rthumb -17.0206 -71.1488
lclavicle -6.00019e-014 -8.94531e-016
lhumerus -14.1431 -38.6282 89.192
lradius 63.9635
lwrist 9.35271
lhand -1.24198 -22.0148
lfingers 7.12502
lthumb 24.4003 6.45158
rfemur 22.0676 -19.7451 24.6293
rtibia -9.82887
rfoot -20.6345 -20.8252
rtoes -1.38827
lfemur 22.239 -19.9619 -7.54333
ltibia -34.1219
lfoot 13.5231 5.3134
ltoes -19.8642
400
root -1.22862 17.8872 6.28068 -6.2659 27.7133 -8.90397
lowerback 9.76409 6.18646 11.3391
upperback -0.519029 9.60089 0.914555
thorax -4.31818 4.49532 -6.44908
lowerneck -8.89071 10.8866 12.3996
upperneck 9.03081 12.9222 0.70587
head 4.91298 6.81526 -0.732667
rclavicle 6.47883e-014 1.5207e-014
rhumerus 26.2393 9.73469 -86.1076
rradius 101.81
rwrist -20.7171
rhand -41.719 -39.2695
rfingers 7.12502
rthumb -14.6244 -68.7338
lclavicle 6.47883e-014 1.5207e-014
lhumerus -13.2983 -39.9036 90.0557
lradius 62.4595
lwrist 9.00704
lhand -1.32331 -22.4243
lfingers 7.12502
lthumb 24.3223 6.05254
rfemur 21.6113 -20.3588 23.9113
rtibia -6.5763
rfoot -22.1798 -19.3211
rtoes -1.07229
lfemur 22.976 -20.4803 -8.12397
ltibia -33.8081
lfoot 13.4175 5.21903
ltoes -19.6734
401
root -1.21387 17.886 6.30671 -7.11412 28.0537 -8.6466
lowerback 10.7162 6.67753 12.109
upperback -0.768669 10.4815 0.65349
thorax -4.77633 4.86201 -7.34941
lowerneck -9.85084 9.53536 11.9872
upperneck 10.2087 10.8158 2.46237
head 5.21412 5.92804 -0.253938
rclavicle -1.89467e-016 5.36719e-015
rhumerus 30.7653 17.7517 -82.6297
rradius 100.93
rwrist -23.2521
rhand -34.2698 -32.7489
rfingers 7.12502
rthumb -7.44004 -62.5981
lclavicle -1.89467e-016 5.36719e-015
lhumerus -13.5026 -40.8847 91.1482
lradius 61.8924
lwrist 9.12718
lhand -1.07292 -22.5366
lfingers 7.12502
lthumb 24.5623 5.90787
rfemur 19.5529 -20.7562 23.2044
rtibia 1.90833e-014
rfoot -25.1452 -16.7712
rtoes -0.562752
lfemur 23.944 -20.7312 -8.83045
ltibia -33.4698
lfoot 13.1945 5.15587
ltoes -19.0809
402
root -1.19725 17.8882 6.34017 -7.54023 28.4729 -8.22513
lowerback 11.3746 7.20385 12.6203
upperback -1.19705 11.356 0.29858
thorax -5.26428 5.21529 -8.19586
lowerneck -10.4919 8.19251 11.7549
upperneck 11.0351 8.7294 4.23462
head 5.41061 5.06961 0.186193
rclavicle -1.09821e-013 6.75868e-015
rhumerus 35.6129 25.8599 -77.159
rradius 99.7148
rwrist -24.9726
rhand -23.0053 -27.5207
rfingers 7.12502
rthumb 3.43795 -57.4728
lclavicle -1.09821e-013 6.75868e-015
lhumerus -14.702 -41.7346 92.5876
lradius 62.1953
lwrist 9.55268
lhand -0.798154 -22.5206
lfingers 7.12502
lthumb 24.8257 5.8878
rfemur 20.5273 -21.1308 22.379
rtibia 5.08889e-014
rfoot -25.5461 -16.2661
rtoes 0.174289
lfemur 24.499 -20.765 -9.50331
ltibia -33.1264
lfoot 12.9988 4.86973
ltoes -18.5802
403
root -1.1781 17.8991 6.38206 -7.46586 29.243 -7.76202
lowerback 11.4422 7.69216 12.9302
upperback -1.73202 12.0781 -0.0950714
thorax -5.58057 5.50585 -8.88334
lowerneck -10.9227 7.12928 11.8938
upperneck 11.6359 7.04598 5.48189
head 5.58748 4.39109 0.436044
rclavicle 1.16972e-014 -7.95139e-015
rhumerus 41.3913 33.3606 -69.9555
rradius 98.2941
rwrist -23.4416
rhand -9.0677 -25.0046
rfingers 7.12502
rthumb 16.8813 -54.2909
lclavicle 1.16972e-014 -7.95139e-015
lhumerus -16.444 -42.4144 94.1062
lradius 63.1963
lwrist 10.2969
lhand -0.862871 -22.6396
lfingers 7.12502
lthumb 24.7636 5.77728
rfemur 21.0071 -21.8182 21.6511
rtibia 1.59028e-014
rfoot -25.8139 -15.7616
rtoes 1.1447
lfemur 24.3956 -20.749 -9.96331
ltibia -32.7825
lfoot 13.0307 4.22474
ltoes -18.0146
404
root -1.16023 17.9118 6.42581 -7.22158 30.2216 -7.32084
lowerback 11.2723 8.08819 13.1103
upperback -2.19755 12.6237 -0.425722
thorax -5.7562 5.72888 -9.37398
lowerneck -11.5086 6.45387 12.0527
upperneck 12.1343 5.90886 6.19261
head 5.80452 3.9435 0.567078
rclavicle -2.5196e-014 1.59028e-015
rhumerus 49.5144 39.754 -60.2106
rradius 97.0039
rwrist -19.329
rhand 2.94134 -22.5875
rfingers 7.12502
rthumb 28.4045 -50.4521
lclavicle -2.5196e-014 1.59028e-015
lhumerus -18.2991 -42.8798 95.2996
lradius 64.8095
lwrist 11.3179
lhand -1.10216 -22.7767
lfingers 7.12502
lthumb 24.5343 5.67148
rfemur 21.3121 -22.7051 20.9764
rtibia 1.90833e-014
rfoot -25.9164 -15.2316
rtoes 2.28204
lfemur 24.0372 -20.7014 -10.309
ltibia -32.4521
lfoot 13.2073 3.30673
ltoes -17.64
405
root -1.14679 17.9191 6.46653 -7.06653 31.204 -6.86686
lowerback 11.2152 8.52054 13.2926
upperback -2.51096 13.2191 -0.78453
thorax -5.79981 5.99444 -9.8967
lowerneck -12.3595 6.0874 12.1761
upperneck 12.416 5.19369 6.58011
head 6.0183 3.66881 0.641428
rclavicle 2.70596e-014 1.47101e-014
rhumerus 60.3609 43.9107 -47.7539
rradius 96.0241
rwrist -13.8886
rhand 8.69115 -16.6664
rfingers 7.12502
rthumb 33.8839 -43.4758
lclavicle 2.70596e-014 1.47101e-014
lhumerus -20.1769 -43.6004 96.2139
lradius 66.4417
lwrist 12.7191
lhand -1.66557 -24.0203
lfingers 7.12502
lthumb 23.9941 4.50015
rfemur 21.718 -23.5934 20.2386
rtibia -2.22639e-014
rfoot -25.8926 -14.8181
rtoes 2.85185
lfemur 23.8049 -20.582 -10.7156
ltibia -32.1747
lfoot 13.3296 2.35797
ltoes -17.8967
406
root -1.13792 17.9204 6.50258 -7.01393 32.2244 -6.45409
lowerback 11.2469 9.11143 13.581
upperback -2.73508 14.0365 -1.28508
thorax -5.66663 6.38665 -10.6292
lowerneck -13.2276 5.9433 12.8589
upperneck 12.2713 4.78025 6.31856
head 6.13498 3.49057 0.443888
rclavicle -9.10931e-014 -3.57812e-015
rhumerus 70.422 46.0775 -35.4025
rradius 96.0798
rwrist -8.02022
rhand 10.3226 -10.8264
rfingers 7.12502
rthumb 35.4322 -37.2804
lclavicle -9.10931e-014 -3.57812e-015
lhumerus -22.2205 -45.0741 97.1319
lradius 68.6591
lwrist 13.6081
lhand -2.08356 -23.6631
lfingers 7.12502
lthumb 23.5932 4.90949
rfemur 22.1959 -24.5271 19.4996
rtibia -1.27222e-014
rfoot -25.7254 -14.6358
rtoes 2.53427
lfemur 23.6522 -20.4867 -11.1197
ltibia -31.9659
lfoot 13.4104 1.4965
ltoes -18.0522
407
root -1.13582 17.9179 6.53011 -7.07036 33.4386 -6.23823
lowerback 11.1596 9.70485 13.7668
upperback -2.8274 14.8246 -1.62623
thorax -5.37509 6.79465 -11.0839
lowerneck -13.9003 5.94868 13.5473
upperneck 11.6826 4.69111 5.48707
head 6.08747 3.38655 0.0772707
rclavicle 8.44835e-015 -8.34896e-015
rhumerus 79.3592 47.2705 -24.0421
rradius 96.3999
rwrist -5.01878
rhand 9.31714 -10.4333
rfingers 7.12502
rthumb 34.4784 -37.1095
lclavicle 8.44835e-015 -8.34896e-015
lhumerus -24.0877 -46.3836 97.944
lradius 70.5177
lwrist 14.3114
lhand -1.89006 -24.3639
lfingers 7.12502
lthumb 23.7788 4.18469
rfemur 22.6576 -25.6833 18.9198
rtibia -5.08889e-014
rfoot -25.5871 -14.5484
rtoes 2.5641
lfemur 23.4495 -20.5205 -11.3458
ltibia -31.8311
lfoot 13.5572 0.641127
ltoes -17.5746
